<?xml version="1.0" standalone="no"?>
<!DOCTYPE svg PUBLIC "-//W3C//DTD SVG 20010904//EN"
 "http://www.w3.org/TR/2001/REC-SVG-20010904/DTD/svg10.dtd">
<svg version="1.0" xmlns="http://www.w3.org/2000/svg"
 width="640.000000pt" height="360.000000pt" viewBox="0 0 640.000000 360.000000"
 preserveAspectRatio="xMidYMid meet">

<g transform="translate(0.000000,360.000000) scale(0.100000,-0.100000)"
fill="#000000" stroke="none">
<path d="M3217 2899 c7 -7 15 -10 18 -7 3 3 -2 9 -12 12 -14 6 -15 5 -6 -5z"/>
<path d="M3564 2778 c-40 -45 -124 -205 -124 -236 0 -34 30 -62 66 -62 24 0
63 35 84 77 8 15 32 58 52 94 42 73 46 94 22 127 -21 30 -74 30 -100 0z"/>
<path d="M3785 2440 c-54 -32 -105 -66 -112 -76 -32 -44 -3 -104 52 -104 27 0
157 68 223 117 59 44 34 125 -38 122 -14 0 -70 -27 -125 -59z"/>
<path d="M3760 2070 c-26 -26 -26 -70 0 -98 19 -21 30 -22 155 -22 122 0 137
2 155 20 12 12 20 33 20 54 0 58 -23 66 -177 66 -120 0 -135 -2 -153 -20z"/>
<path d="M3680 1770 c-25 -25 -27 -81 -2 -102 39 -35 216 -128 241 -128 40 0
63 30 59 76 -3 38 -6 40 -118 106 -63 37 -125 67 -137 68 -13 0 -32 -9 -43
-20z"/>
<path d="M3468 1555 c-30 -17 -43 -45 -33 -74 10 -33 117 -215 133 -228 23
-19 76 -16 95 5 10 10 17 31 17 46 0 36 -119 242 -148 256 -29 13 -31 12 -64
-5z"/>
<path d="M3173 1480 c-36 -15 -43 -43 -43 -178 0 -150 10 -175 70 -175 60 0
70 25 70 178 0 112 -3 136 -17 153 -22 25 -51 33 -80 22z"/>
<path d="M3180 781 c0 -27 -3 -30 -31 -29 -53 2 -76 -53 -44 -100 12 -17 24
-21 55 -19 l40 2 0 88 c0 51 -4 87 -10 87 -5 0 -10 -13 -10 -29z m-7 -63 c15
-23 0 -68 -23 -68 -18 0 -40 26 -40 49 0 15 31 42 43 38 6 -2 15 -10 20 -19z"/>
<path d="M2740 715 l0 -85 39 0 c22 0 43 5 46 10 4 6 -8 10 -29 10 l-36 0 0
75 c0 43 -4 75 -10 75 -6 0 -10 -35 -10 -85z"/>
<path d="M3237 794 c-8 -8 1 -24 14 -24 5 0 9 7 9 15 0 15 -12 20 -23 9z"/>
<path d="M2880 753 c-61 -22 -47 -123 17 -123 50 0 73 85 31 114 -24 17 -25
17 -48 9z m43 -34 c14 -23 0 -69 -21 -69 -24 0 -42 19 -42 45 0 42 42 58 63
24z"/>
<path d="M2998 753 c-28 -7 -21 -22 8 -20 15 1 29 -4 31 -10 3 -8 -3 -13 -15
-13 -10 0 -27 -9 -38 -21 -27 -30 -8 -54 42 -54 l38 1 -2 49 c-3 45 -22 78
-41 74 -3 -1 -14 -3 -23 -6z m42 -78 c0 -9 -7 -18 -16 -22 -18 -7 -39 11 -30
26 11 17 46 13 46 -4z"/>
<path d="M3335 750 c-11 -4 -26 -5 -33 -2 -10 3 -12 -9 -10 -52 4 -69 22 -79
26 -14 2 30 8 48 18 52 26 10 34 -3 34 -49 0 -42 12 -65 24 -46 3 5 3 30 0 55
-7 50 -26 68 -59 56z"/>
<path d="M3453 749 c-41 -15 -42 -88 -2 -109 13 -8 25 -7 39 0 16 8 20 8 20
-3 0 -22 -27 -40 -50 -34 -11 3 -22 1 -25 -4 -11 -17 45 -21 70 -5 23 15 25
23 25 87 0 52 -3 69 -12 66 -7 -2 -20 -1 -28 3 -8 4 -25 4 -37 -1z m47 -23
c16 -20 9 -56 -13 -70 -15 -9 -21 -7 -33 8 -18 25 -18 41 2 60 19 20 28 20 44
2z"/>
<path d="M3240 689 c0 -37 4 -58 10 -54 6 3 10 31 10 61 0 30 -4 54 -10 54 -6
0 -10 -27 -10 -61z"/>
<path d="M3580 645 c0 -8 5 -15 10 -15 6 0 10 7 10 15 0 8 -4 15 -10 15 -5 0
-10 -7 -10 -15z"/>
<path d="M3652 648 c6 -18 28 -21 28 -4 0 9 -7 16 -16 16 -9 0 -14 -5 -12 -12z"/>
<path d="M3730 645 c0 -9 5 -15 11 -13 6 2 11 8 11 13 0 5 -5 11 -11 13 -6 2
-11 -4 -11 -13z"/>
</g>
</svg>
