<?xml version="1.0" standalone="no"?>
<!DOCTYPE svg PUBLIC "-//W3C//DTD SVG 20010904//EN"
 "http://www.w3.org/TR/2001/REC-SVG-20010904/DTD/svg10.dtd">
<svg version="1.0" xmlns="http://www.w3.org/2000/svg"
 width="400.000000pt" height="400.000000pt" viewBox="0 0 400.000000 400.000000"
 preserveAspectRatio="xMidYMid meet">

<g transform="translate(0.000000,400.000000) scale(0.100000,-0.100000)"
fill="#000000" stroke="none">
<path d="M2107 3170 c-51 -109 -78 -190 -112 -332 l-23 -101 54 -73 c29 -40
92 -131 139 -203 82 -125 105 -148 137 -136 104 40 25 599 -126 893 l-24 47
-45 -95z"/>
<path d="M1125 2858 c26 -84 182 -340 290 -475 l50 -63 95 0 c52 0 166 -5 252
-12 171 -12 188 -9 188 39 0 39 -24 76 -94 141 -137 128 -382 264 -611 340
-66 22 -133 43 -148 46 -26 6 -28 5 -22 -16z"/>
<path d="M2915 2703 c-92 -21 -343 -116 -356 -136 -4 -5 -14 -48 -23 -96 -10
-47 -30 -137 -47 -200 -46 -180 -38 -216 44 -191 57 16 212 174 291 294 54 81
145 259 161 314 6 19 3 22 -22 21 -15 -1 -37 -3 -48 -6z"/>
<path d="M1585 2091 c-226 -58 -470 -183 -689 -356 -49 -38 -72 -62 -64 -66
42 -22 222 -41 428 -46 l225 -4 87 113 c47 62 121 153 162 201 83 97 95 132
54 161 -30 21 -113 19 -203 -3z"/>
<path d="M2784 2010 c-6 -6 -87 -50 -179 -98 -93 -48 -173 -94 -178 -103 -64
-105 267 -173 553 -115 100 21 190 47 190 57 0 26 -221 193 -328 248 -48 24
-45 24 -58 11z"/>
<path d="M1830 1734 c-52 -44 -125 -209 -169 -382 -41 -157 -70 -457 -53 -531
l8 -35 72 68 c80 76 178 189 271 313 l61 82 -19 83 c-19 82 -54 266 -65 342
-7 48 -31 86 -55 86 -11 0 -34 -12 -51 -26z"/>
<path d="M2168 1640 c-77 -47 48 -312 251 -533 49 -53 211 -190 217 -184 20
20 4 282 -27 432 l-21 101 -73 33 c-41 18 -122 60 -180 92 -117 65 -142 74
-167 59z"/>
</g>
</svg>
